/* XPM */
static char * bitcoin32_xpm[] = {
"32 32 591 2",
"  	c None",
". 	c #EEDE8F",
"+ 	c #E2D187",
"@ 	c #E4CE80",
"# 	c #E0CA7A",
"$ 	c #E1CB7C",
"% 	c #E9D585",
"& 	c #ECD986",
"* 	c #F3E692",
"= 	c #F2E795",
"- 	c #E2CB7C",
"; 	c #D8B768",
"> 	c #E1BC68",
", 	c #E0BB68",
"' 	c #DFBC69",
") 	c #DFBA66",
"! 	c #D8B365",
"~ 	c #D5AE63",
"{ 	c #D0AB62",
"] 	c #D9B465",
"^ 	c #D2B063",
"/ 	c #E6CE7A",
"( 	c #EEE18A",
"_ 	c #F1E897",
": 	c #E2C879",
"< 	c #DAB665",
"[ 	c #DBB967",
"} 	c #D4B262",
"| 	c #C29E58",
"1 	c #C19C57",
"2 	c #B69353",
"3 	c #C0A05B",
"4 	c #B29555",
"5 	c #B49352",
"6 	c #BA9755",
"7 	c #BC9855",
"8 	c #CEAB60",
"9 	c #DEBE6C",
"0 	c #D0AF64",
"a 	c #DAC475",
"b 	c #EFE68C",
"c 	c #EAD788",
"d 	c #DFBB68",
"e 	c #D9B766",
"f 	c #C4A25A",
"g 	c #B29050",
"h 	c #B49453",
"i 	c #C6A65C",
"j 	c #B69351",
"k 	c #AD8E50",
"l 	c #D6BE6D",
"m 	c #DDBB67",
"n 	c #AF9052",
"o 	c #B29151",
"p 	c #B79553",
"q 	c #C6A961",
"r 	c #B89654",
"s 	c #C3A25D",
"t 	c #DABD6E",
"u 	c #CCAD63",
"v 	c #E4D180",
"w 	c #EED787",
"x 	c #E8C36B",
"y 	c #DBBB69",
"z 	c #B49252",
"A 	c #B59251",
"B 	c #CDAF61",
"C 	c #B08E4F",
"D 	c #B99754",
"E 	c #B39151",
"F 	c #AF8F50",
"G 	c #C6AC62",
"H 	c #DCC06A",
"I 	c #BA9756",
"J 	c #B39251",
"K 	c #CBAE65",
"L 	c #E9C56E",
"M 	c #B89755",
"N 	c #B09050",
"O 	c #CCAC67",
"P 	c #C9A962",
"Q 	c #DEC978",
"R 	c #EDD787",
"S 	c #E2C06D",
"T 	c #C9A95E",
"U 	c #AF8D4F",
"V 	c #AE8C4D",
"W 	c #B69452",
"X 	c #B29252",
"Y 	c #B8A45F",
"Z 	c #AA8A4D",
"` 	c #B69350",
" .	c #B19051",
"..	c #B59453",
"+.	c #B79753",
"@.	c #CBAF67",
"#.	c #E1BD6C",
"$.	c #EAC169",
"%.	c #AD8E51",
"&.	c #AF9051",
"*.	c #C4A65E",
"=.	c #B19152",
"-.	c #BF9F5F",
";.	c #D8BC70",
">.	c #E0C978",
",.	c #F3E290",
"'.	c #E9C76C",
").	c #D1B261",
"!.	c #B29150",
"~.	c #BEA05B",
"{.	c #D2B264",
"].	c #B59956",
"^.	c #CAB76A",
"/.	c #ECD174",
"(.	c #CCA75F",
"_.	c #AF8E50",
":.	c #B19050",
"<.	c #C5A75B",
"[.	c #B49351",
"}.	c #D1AE63",
"|.	c #E7C26A",
"1.	c #B89655",
"2.	c #B09051",
"3.	c #C8A95D",
"4.	c #AE8E50",
"5.	c #B89554",
"6.	c #C6A763",
"7.	c #D4B972",
"8.	c #E4D07D",
"9.	c #F6E998",
"0.	c #E6C36C",
"a.	c #D8BA6A",
"b.	c #AE8E4F",
"c.	c #B49251",
"d.	c #B69553",
"e.	c #B18F50",
"f.	c #DBC26E",
"g.	c #E4C06A",
"h.	c #D3AE61",
"i.	c #AD8D4F",
"j.	c #C1A55D",
"k.	c #D0B062",
"l.	c #B08E4E",
"m.	c #B79452",
"n.	c #D5B264",
"o.	c #E5BE68",
"p.	c #AB8D4F",
"q.	c #A5894F",
"r.	c #AF9656",
"s.	c #B08F4F",
"t.	c #B39252",
"u.	c #CAAC67",
"v.	c #D6B96D",
"w.	c #F0E183",
"x.	c #E8CC7A",
"y.	c #E9CC72",
"z.	c #B89855",
"A.	c #B49554",
"B.	c #D2BD6E",
"C.	c #B99956",
"D.	c #AD8B4F",
"E.	c #B29051",
"F.	c #AF9153",
"G.	c #BD9F58",
"H.	c #E7D273",
"I.	c #B69352",
"J.	c #B29352",
"K.	c #BC9E57",
"L.	c #BA9954",
"M.	c #D4B467",
"N.	c #E6BF68",
"O.	c #B49856",
"P.	c #DEC46F",
"Q.	c #CBA95F",
"R.	c #B08F50",
"S.	c #BDA15A",
"T.	c #BA9A58",
"U.	c #D7BC70",
"V.	c #D6BE72",
"W.	c #F6E991",
"X.	c #E7C66F",
"Y.	c #CEAF62",
"Z.	c #BDA05A",
"`.	c #E6C76F",
" +	c #CAA55C",
".+	c #BFA45D",
"++	c #B69453",
"@+	c #B59352",
"#+	c #AF8E4F",
"$+	c #AB8A4D",
"%+	c #B49150",
"&+	c #AC8B4E",
"*+	c #AE8C4E",
"=+	c #D2B369",
"-+	c #E2BB68",
";+	c #B49553",
">+	c #DEC46E",
",+	c #CFAE60",
"'+	c #B59353",
")+	c #B39352",
"!+	c #BB9E60",
"~+	c #D4B86F",
"{+	c #EAD480",
"]+	c #E9CE7C",
"^+	c #E8CB74",
"/+	c #B59553",
"(+	c #B19252",
"_+	c #C3A75C",
":+	c #C4A85E",
"<+	c #BD9C56",
"[+	c #B39152",
"}+	c #C0A15A",
"|+	c #BF9D57",
"1+	c #B39150",
"2+	c #C2A460",
"3+	c #C9A661",
"4+	c #D5AF60",
"5+	c #D0B167",
"6+	c #B69654",
"7+	c #B99855",
"8+	c #B89653",
"9+	c #AC8C4F",
"0+	c #D1B86F",
"a+	c #DCCA79",
"b+	c #E2C06C",
"c+	c #D9BB6B",
"d+	c #C8AD62",
"e+	c #BF9D58",
"f+	c #B18E4F",
"g+	c #BF9D55",
"h+	c #B59452",
"i+	c #BC9A56",
"j+	c #B29253",
"k+	c #AC8D4F",
"l+	c #BD9F5B",
"m+	c #B39354",
"n+	c #C3A762",
"o+	c #C5AD6B",
"p+	c #F1E48E",
"q+	c #DCBD6D",
"r+	c #BB9C5A",
"s+	c #B99854",
"t+	c #C4A85C",
"u+	c #B59351",
"v+	c #B89956",
"w+	c #D5AF65",
"x+	c #DBB266",
"y+	c #BE9A59",
"z+	c #CAA764",
"A+	c #CFB16B",
"B+	c #C5A764",
"C+	c #C6AB63",
"D+	c #CEAF68",
"E+	c #D0B164",
"F+	c #C1A762",
"G+	c #E2CA7C",
"H+	c #E0C577",
"I+	c #E3CC78",
"J+	c #C8AF68",
"K+	c #E2D284",
"L+	c #D5BC74",
"M+	c #E3C878",
"N+	c #C1A05B",
"O+	c #B19150",
"P+	c #B79659",
"Q+	c #D9BD73",
"R+	c #ECDA7F",
"S+	c #EDD781",
"T+	c #E1C471",
"U+	c #AF9054",
"V+	c #B79552",
"W+	c #CCB162",
"X+	c #BF9F5A",
"Y+	c #B79653",
"Z+	c #E3BF6C",
"`+	c #CEAF69",
" @	c #B69555",
".@	c #CBB467",
"+@	c #E0BC68",
"@@	c #D5B164",
"#@	c #BFA059",
"$@	c #B29251",
"%@	c #DABB6B",
"&@	c #D0AB61",
"*@	c #CFB166",
"=@	c #D9B96B",
"-@	c #C7AC64",
";@	c #E2C272",
">@	c #C4A45E",
",@	c #B19151",
"'@	c #B29152",
")@	c #D8BF75",
"!@	c #E7D07A",
"~@	c #E9D37C",
"{@	c #DCC070",
"]@	c #BDA15B",
"^@	c #E7C571",
"/@	c #CDB36D",
"(@	c #B39353",
"_@	c #C3AA64",
":@	c #C8AA5F",
"<@	c #CCA85E",
"[@	c #DEC56D",
"}@	c #DABB6C",
"|@	c #CCA65E",
"1@	c #C8A961",
"2@	c #E3BE6A",
"3@	c #C8AD63",
"4@	c #E8BE6C",
"5@	c #DDC677",
"6@	c #D4BB6B",
"7@	c #AE8D4E",
"8@	c #D4BB72",
"9@	c #E0C878",
"0@	c #E4CC7B",
"a@	c #D8BE70",
"b@	c #D4B061",
"c@	c #DABF6A",
"d@	c #B89551",
"e@	c #BD9B56",
"f@	c #DEC170",
"g@	c #DDC46F",
"h@	c #D7BF71",
"i@	c #D2BC6E",
"j@	c #E2BB65",
"k@	c #CCAD61",
"l@	c #D0B262",
"m@	c #BEA15D",
"n@	c #E1C370",
"o@	c #D9B366",
"p@	c #DDBA6A",
"q@	c #C39D57",
"r@	c #DBB66B",
"s@	c #DEBA6E",
"t@	c #E6CA7B",
"u@	c #CDA55D",
"v@	c #DABE71",
"w@	c #E1C876",
"x@	c #E4CB78",
"y@	c #D8BB6E",
"z@	c #B49151",
"A@	c #B89754",
"B@	c #B6924F",
"C@	c #AD8F50",
"D@	c #B49755",
"E@	c #B59350",
"F@	c #B18F4E",
"G@	c #B59754",
"H@	c #B89652",
"I@	c #B18F4F",
"J@	c #BA9854",
"K@	c #B99752",
"L@	c #B4914F",
"M@	c #C6B166",
"N@	c #D1B66C",
"O@	c #D8BB70",
"P@	c #E1C978",
"Q@	c #DEC171",
"R@	c #D7B563",
"S@	c #D7C26E",
"T@	c #CBAD5F",
"U@	c #AE8D4F",
"V@	c #DDBA66",
"W@	c #CCB364",
"X@	c #AC8C4E",
"Y@	c #B79551",
"Z@	c #C7A85D",
"`@	c #B59250",
" #	c #B1904F",
".#	c #C7AC60",
"+#	c #E5C66E",
"@#	c #C4A05A",
"##	c #D0B26A",
"$#	c #DEC676",
"%#	c #E3CC7A",
"&#	c #E5CB75",
"*#	c #B59454",
"=#	c #C2A058",
"-#	c #C4A75C",
";#	c #B79554",
">#	c #E1C169",
",#	c #E0C46E",
"'#	c #B2904F",
")#	c #AF8F4F",
"!#	c #BFA258",
"~#	c #B09150",
"{#	c #B89953",
"]#	c #B29351",
"^#	c #C2A55A",
"/#	c #A9894D",
"(#	c #B69451",
"_#	c #B49653",
":#	c #D0B664",
"<#	c #B59252",
"[#	c #E0C676",
"}#	c #E7CC78",
"|#	c #EBDD81",
"1#	c #C1A05C",
"2#	c #AB8A4C",
"3#	c #BD9F57",
"4#	c #C4A45C",
"5#	c #C8A65C",
"6#	c #BE9B55",
"7#	c #DBBE69",
"8#	c #AF8D4E",
"9#	c #B3904F",
"0#	c #D9C472",
"a#	c #9F844C",
"b#	c #AE8E4E",
"c#	c #B69456",
"d#	c #E0C678",
"e#	c #E7D179",
"f#	c #D7B869",
"g#	c #D2B568",
"h#	c #B49451",
"i#	c #D0AC5F",
"j#	c #D7B564",
"k#	c #BC9954",
"l#	c #B49250",
"m#	c #B79652",
"n#	c #D1B262",
"o#	c #B39050",
"p#	c #C0A158",
"q#	c #CDB664",
"r#	c #E7CB73",
"s#	c #E2BD68",
"t#	c #B89B57",
"u#	c #C0A364",
"v#	c #DDC176",
"w#	c #DEC371",
"x#	c #E1C775",
"y#	c #C3A058",
"z#	c #C19E57",
"A#	c #CAA95E",
"B#	c #C29F58",
"C#	c #CCAA5E",
"D#	c #CCA95D",
"E#	c #CBAB5E",
"F#	c #C8A55B",
"G#	c #BF9E57",
"H#	c #B09252",
"I#	c #B69552",
"J#	c #CEB668",
"K#	c #EACD70",
"L#	c #DFBC67",
"M#	c #B99756",
"N#	c #DDBF69",
"O#	c #D4BA70",
"P#	c #DDBF76",
"Q#	c #E4CF7A",
"R#	c #DDC272",
"S#	c #CBAC62",
"T#	c #CBA85D",
"U#	c #BE9D58",
"V#	c #CBA95E",
"W#	c #CBA75C",
"X#	c #CFAB5E",
"Y#	c #D0AC5E",
"Z#	c #D8B261",
"`#	c #CFAB5D",
" $	c #BE9D57",
".$	c #AB8C4F",
"+$	c #D6BF6C",
"@$	c #D5B263",
"#$	c #C7AE60",
"$$	c #B89A54",
"%$	c #AA894D",
"&$	c #AF8E4E",
"*$	c #B39250",
"=$	c #B69556",
"-$	c #DEC77B",
";$	c #E3C172",
">$	c #D5BA6C",
",$	c #E4CA78",
"'$	c #B28F4F",
")$	c #C39F58",
"!$	c #C1A059",
"~$	c #C4A159",
"{$	c #CAA65D",
"]$	c #C19D56",
"^$	c #D2B867",
"/$	c #DCBD67",
"($	c #D4B465",
"_$	c #B18E4E",
":$	c #D8C072",
"<$	c #DEC175",
"[$	c #EBD77D",
"}$	c #D9BA6E",
"|$	c #D0B266",
"1$	c #B39351",
"2$	c #BB9A56",
"3$	c #D2AE62",
"4$	c #D4AF5F",
"5$	c #D5AF5F",
"6$	c #D3AF61",
"7$	c #C7A45A",
"8$	c #B99A55",
"9$	c #B99753",
"0$	c #BE9F57",
"a$	c #B2914F",
"b$	c #C4A35A",
"c$	c #C2A861",
"d$	c #DCC176",
"e$	c #E6C372",
"f$	c #E4C873",
"g$	c #E6C875",
"h$	c #C5A85F",
"i$	c #B59653",
"j$	c #D5B564",
"k$	c #B89954",
"l$	c #AD8C4F",
"m$	c #BA9955",
"n$	c #DAC074",
"o$	c #D8B26B",
"p$	c #DBBB6F",
"q$	c #EDD37C",
"r$	c #C8AA60",
"s$	c #CCAE5F",
"t$	c #AB8F51",
"u$	c #B69753",
"v$	c #BFA058",
"w$	c #C2A45E",
"x$	c #DBC676",
"y$	c #DAB66B",
"z$	c #D9B76B",
"A$	c #EAD27B",
"B$	c #D8BF6E",
"C$	c #B08E50",
"D$	c #B49955",
"E$	c #C2A05A",
"F$	c #BEA059",
"G$	c #B79D58",
"H$	c #CCAD60",
"I$	c #BC9D57",
"J$	c #C1A35B",
"K$	c #BD9755",
"L$	c #CBAE67",
"M$	c #EEDA81",
"N$	c #D2AF67",
"O$	c #DCBA6E",
"P$	c #E2C776",
"Q$	c #E6D078",
"R$	c #BCA05C",
"S$	c #B79956",
"T$	c #E4C86F",
"U$	c #CCA95E",
"V$	c #B89452",
"W$	c #BA9C57",
"X$	c #D0B160",
"Y$	c #B79351",
"Z$	c #C4A35E",
"`$	c #DFC877",
" %	c #E9D27E",
".%	c #D5B26A",
"+%	c #D4AF68",
"@%	c #C6AA6A",
"#%	c #EAD47D",
"$%	c #E6D37B",
"%%	c #CAAB61",
"&%	c #C0A05A",
"*%	c #B28F51",
"=%	c #B39051",
"-%	c #B18E51",
";%	c #B89353",
">%	c #C09A55",
",%	c #C29B56",
"'%	c #CBA860",
")%	c #E5CF7B",
"!%	c #E9D37F",
"~%	c #E0C271",
"{%	c #CFA762",
"]%	c #CCA763",
"^%	c #D5B168",
"/%	c #E3CB77",
"(%	c #E7D07C",
"_%	c #E2C876",
":%	c #E0C877",
"<%	c #DFC574",
"[%	c #DFC474",
"}%	c #E7CD78",
"|%	c #EDD880",
"1%	c #D3B36B",
"2%	c #C5A161",
"3%	c #CCA561",
"4%	c #C9A664",
"5%	c #CAAB68",
"6%	c #D0B069",
"7%	c #CCAD67",
"8%	c #CEAE6B",
"9%	c #C0A162",
"0%	c #BF9D5F",
"                        . + @ # $ % & *                         ",
"                  = - ; > , ' ) ! ~ { ] ^ / (                   ",
"              _ : < [ } | 1 2 3 4 5 6 7 8 9 0 a b               ",
"            c d e f g h i j k l m n o p q r s t u v             ",
"          w x y z A B C D E F G H I J K L M N D O P Q           ",
"        R S T U 5 V W X Y Z `  ...+.@.#.$.%.&.*.=.-.;.>.        ",
"      ,.'.).!.~.{.E ].^./.(._.g :.<.[.}.|.1.2.3.4.5.6.7.8.      ",
"    9.0.a.E b.c.d.c.e.f.g.h.i.j.k.l.m.n.o.p.q.r.s.t.=.u.v.w.    ",
"    x.y.z.A.B.C.D.E.F.G.H.I.o J.K.J L.M.N.5 O.P.Q.R.S.T.U.V.    ",
"  W.X.Y.R.Z.`. +g .+++@+A.#+$+%+J &+*+=+-+&.;+>+,+'+)+E !+~+{+  ",
"  ]+^+/+t.(+_+5 R.:+<+[+e.J }+|+#+1+2+3+4+5+6+7+8+t.)+ .9+0+a+  ",
"  b+c+d+e+f+g+h+@+F t.R.W #+o i+8+:.j+6+[+k+&.[.E l+m+F E n+o+  ",
"p+q+r+A.s+t+u+v+'+w+x+y+z+A+B+C+D+E+F+G+H+I+J+m+K+L+M+N+O+P+Q+R+",
"S+T+U+V+c.W+d.X+Y+++Z+b.`+ @.@+@@@#@$@%@&@*@=@-@;@#+++>@,@'@)@!@",
"~@{@4.,@]@*+c.b.j+6 ^@E./@(@_@:@<@[@j }@|@1@2@3@4@I.5@6@s.7@8@9@",
"0@a@i.b@c@#+d@e@C @+f@g@h@V+i@j@k@l@m@n@o@p@q@o r@s@t@u@o E v@w@",
"x@y@z@A@J.B@C@D@E@F@++u+G@A.H@#+I@b.s.1+h+J@K@o c.z@L@M@X g N@O@",
"P@Q@g !.!.@+R@S@;+u+T@U@V@W@c.X@:.Y@$@!.C V l.Z@`@ #.#+#@#i.##$#",
"%#&#*#=#-#;#>#,#!.'#i.)#!#~#e.'#{#V+]#1+^# #F@/#'#(#_#:#I.<#[#}#",
"|#n@1#'#l.2#3#2.c.4#5#6#I@#+7@W 7#F F Z.8#9#8#0#a#b#1+_.'#c#d#e#",
"  f#g#W h#U@U@1+A i#j#k#l#Y+#+m#$@c.'#n#o#p#q#r#s#7 9#t#g u#v#  ",
"  w#x#p $@y#z#A#B#C#f+D#E#F#D G#1+H#I#8# #l#J#K#L#M#h#N#e.O#P#  ",
"  Q#R#S#g T#U#V#W#X#!.Y#Z#`# $2..$+$@$X@V i.k #$$$%$&$*$=$-$;$  ",
"    >$,$z '$|+U#A#)$!$~${$]$f+E 8#^$/$o _#($8#i.s._$J '#:$<$    ",
"    [$}$|$1$@+2$3$4$5$6$7$8+o 8$7@C 9$`@,@0$:.8+A a$b$c$d$e$    ",
"      f$g$h$o J I@R.E.o#'$1+i$j$g k$j l$A %+l#m$,@[+A@n$o$      ",
"        p$q$r$E s$`@1+i.t$'#!.)#J u$8#*+u+R.v$o &.w$x$y$        ",
"          z$A$B$C$5 @+D$g@E$C F$p G$H$&$I$#+J$K$L$M$N$          ",
"            O$P$Q$R$ .S$T$U$V$J@e.W$X$I@F Y$Z$`$ %.%            ",
"              +%@%#%$%%%&%u+*%=%-%;%>%,%'%)%!%~%{%              ",
"                  ]%^%/%#%(%_%:%<%[%}%|%/ 1%2%                  ",
"                        3%4%5%6%7%8%9%0%                        "};
