/* XPM */
static char *_4_x_641674041909[] = {
/* columns rows colors chars-per-pixel */
"64 64 113 2 ",
"   c None",
".  c #663F11",
"X  c #674111",
"o  c #6C4414",
"O  c #6F4917",
"+  c #704714",
"@  c #734B16",
"#  c #794F17",
"$  c #764E19",
"%  c #784F19",
"&  c #74501D",
"*  c #7C541C",
"=  c #7F581F",
"-  c #7C5621",
";  c #7F5922",
":  c #81561D",
">  c #83591E",
",  c #8A5F1F",
"<  c #805720",
"1  c #845C22",
"2  c #895F21",
"3  c #825E2D",
"4  c #876026",
"5  c #8B6225",
"6  c #866129",
"7  c #8C652A",
"8  c #8E692C",
"9  c #906625",
"0  c #936926",
"q  c #936B2C",
"w  c #97702E",
"e  c #99702E",
"r  c #8A6632",
"t  c #8E6B33",
"y  c #936E32",
"u  c #967134",
"i  c #9B7433",
"p  c #9E7835",
"a  c #937539",
"s  c #9A763A",
"d  c #96793C",
"f  c #9C7B3C",
"g  c #A17B36",
"h  c #A17D3C",
"j  c #967641",
"k  c #997742",
"l  c #9B7C41",
"z  c #977948",
"x  c #9F7F49",
"c  c #A17E42",
"v  c #A4813E",
"b  c #AA833B",
"n  c #9E8142",
"m  c #A38444",
"M  c #A98746",
"N  c #A78946",
"B  c #AC8B46",
"V  c #A38549",
"C  c #A88748",
"Z  c #A5894B",
"A  c #AB8C4B",
"S  c #B08E4C",
"D  c #AD904E",
"F  c #B19046",
"G  c #B3944C",
"H  c #B6984F",
"J  c #A78D53",
"K  c #AC8E53",
"L  c #AE9353",
"P  c #AF955A",
"I  c #B39552",
"U  c #B69954",
"Y  c #B99D55",
"T  c #B29659",
"R  c #B59B5A",
"E  c #B99E5A",
"W  c #BEA156",
"Q  c #BDA25C",
"!  c #B49C60",
"~  c #BA9E63",
"^  c #BEA462",
"/  c #C1A65E",
"(  c #C3A85F",
")  c #C1A761",
"_  c #C4AB65",
"`  c #C8AF67",
"'  c #C0A769",
"]  c #C6AE69",
"[  c #C8AF69",
"{  c #C7B06B",
"}  c #CAB26D",
"|  c #C7AF73",
" . c #CCB671",
".. c #CFB974",
"X. c #CCB67B",
"o. c #CEB97A",
"O. c #D0BB76",
"+. c #D2BD7A",
"@. c #D5C17E",
"#. c #CBB681",
"$. c #D1BD83",
"%. c #D6C282",
"&. c #D9C685",
"*. c #DBC887",
"=. c #D7C489",
"-. c #D9C789",
";. c #DCCA8C",
":. c #DECD93",
">. c #E0CF93",
",. c #E2D195",
"<. c #E4D49B",
"1. c #E7D9A2",
"2. c #EADEAB",
/* pixels */
"                                                      ;.;.;.o.{  .@.;.:.:.                                                      ",
"                                              o.| Y G G G F B B D G G H H W ) +.-.                                              ",
"                                        ;.] H F F Y Q _ Q Q I Q Q ` ` { ` ( Y B F Y { ,.                                        ",
"                                    +.Q G Y / { _ ] ^ A ^ U n n N ] }  .R ] ] ] _ Q D F Q +.                                    ",
"                                 .H F Q _ _ P n U } ` n ` _ Q d  .o. .R n D { ] ] R _ Q U v H $.                                ",
"                            +.] H W Q Q ` L Z _ E +.o.d _ } ^ a @.o.] n Z n { { R R } ` ( U F B Q :.                            ",
"                          _ G Y _ ` n ^ } D L ..Z ^ +.V ^ } _ Z ..@.A I Q d ^ ..n  .o.} ` Q E Q I G @.                          ",
"                        / G Y { } } R V } _ f a f _ +...o.@.@.%.@.@.@.o. .^ ^ Q l Q }  .} { _ _ ] Q G }                         ",
"                    ..G G ] L V P  . .d T @.+. .+.%.*.:.=.%.-.%.&.-.:.;.>.>.>...] I E [ _  .} E Z _ _ G Q :.                    ",
"                  o.U I Q V n Q V ^ ..R ^ @.;.<.<.+.R h q u 2 0 , , 4 i c U o.>.>.-.+...O.O.) V U Z ) ( G E :.                  ",
"                $.Y W / ] I Z O.I E +.+.;.>.@.A 8 1 2 - 1 > > 2 # , * * : # % 9 M $.2.<.+.+.R R O.^ / ] _ I Q <.                ",
"                ] Q } ` {  .n Z c ..%.>.@.A 5 5 5 * 2 8 > 5 9 7 0 : : * : : : 2 1 w L ;.2.;.} l P I O.{ ] _ G (                 ",
"              ` / _  .{ } O.{ D o.;.;.E i i : > > 9 s ~ +.*.>.>.,.<.+.$.^ c 2 2 7 q q g T >.<...R ....P J T ] Y }               ",
"            +.( } } {  ...O.o...;.+.y 8 # * 1 7 _ ;.;.*.*.+.O.+.%.&.%.-.;.*.;.O.h 2 % 3 2 h $.1.*.+.^ l U n I { I +.            ",
"          o.Q } A D { ....O.O.*.] 8 < 2 * 8 T ;.*.@.$.+.+...o.+.@.@.@.+.O.+.%.*.>.~ 2 - < 6 2 ..1.&.U L { P D } ) Y -.          ",
"          ` ` _ n P a A .. .%.Q 5 & . > k ..+.@.+.+... .E C ) ..O.{ m Y _ _ } } +.*.>.c 3 2 % 8 ] <.] f L n Q } { E /           ",
"        o.(  .} f m P N @.@.^ 5 i 8 u ) %.} ]  .O.E h 5 > q E ..] R * 1 > t N Q { } +.:.~ , # e 9 ] ,._ U ) } ..' ] G ..        ",
"        ` ` O.O..._ n _ @. .5 > 1 * ^ o. .] ) I g 5 9 5 y q I ] } ) : O 4 O ; 4 M E )  .+._ g 9 e b ] ;. . .' V V ( Q Q         ",
"      +._ _ A ^ o...} O.%.N q @ * ^  . .} { m q q q , 1 * 1 R ] } / q 8 t t @ ; * p Q } [ +.~ e g 0 M *.O.E m ^ } { ` H +.      ",
"       ...} T f Z ....%.U 4 = 4 ^ @. ._ Q u 9 5 q 2 9 V O.*.&.O.}  .$.| L 1 * 1 * * < ]  .[ +.U g 0 , I -.` l } .. .{ ] _       ",
"    ..}  .T o. .a ^ ..o.4 5 7 C %.o._ Q 8 = * 9 5 m *.*.%.%.+...[ ]  ...+.*.j * * & 6 u } ..+.-.g 0 2 8 } *.T E o. . .} Q %.    ",
"    @. .} N a Z n } @.m $ * u @.@.+.` i 5 q w q } &.%.+.+. . .] } _ ] ) ] ] ..' q y t 5 p ` o.%.%.e 1 1 M *.+.+.] T L ] ) {     ",
"  .. ...@..._ W _ } { 5 7 > ) @.@...N 4 8 4 8 ) { ..O.+._ M q q w p 5 5 8 m e 8 5 O q : V V O.+.*.A > y * O.*.E V A D D ) I }   ",
"  .. ... .{ ^ ^ _ o.A & : i +.+.O.] l 8 8 8 ^ { Q _ _ u : 5 * > 1 # * : 7 t 5 1 1 5 5 1 r r Q +.+.O.t ; 6 U :.] V o.Q n Q G  .  ",
"  ..} O.{ Q ] _ { { y 4 , V ..o.+.8 j 7 p ^ ...._ Z @ 7 8 2 < % 1 1 * y k y 7 q $ 5 1 # * 1 c } @.&.Z z & s &.@.A T n U ^ W {   ",
"  ..O.} ` ] ] { o. .w w 1  .+.+.] i t 7 c +.+...E $ % * 1 3 8 2 4 8 6 6 5 7 5 4 y 1 > 1 y ; q ) O...~ ; 1 o O.*.} Q Q Q Q ^ Q   ",
"  } } _ ` } ^ { ..W 1 = u +.+...N * ; > ] .. ./ 1 6 6 > 2 f K ..] +.;.| o.| o.#.=.$.$. .@ @ # m { { } q X O A @.o.{ } _ { { _   ",
"] ` ` _ _ {  .{ { D ; 8 C +... .5 $ > = O. ._ f % & X + A O.+.%.@.%.&.&.;.%.%.:.:.;.%.+.6 1 : f  ...} f 3 0 m O.{ ] ^ ]  .} ) o.",
"/ ( _ _ ^ ` o... .f i > U ..{ ( 1 8 u E O. .` * * 1 & S +.O. .} } } } } }  . . . .{ ] } D : q 1 _ ] O.I u 5 t ..{ { ) Q _ ] Q  .",
"{ _ W Q Q { {  . .8 4 , R } / G & 5 @ E  .} R 1 7 $ * ` O...{ A B B G A N v m A A Q ) { ` * * o I Q ] E = q 8 %.@...} _ { _ Q ..",
") ] ( I W Q {  . .* q 1 ) ^ Q Q 5 @ & Y } ] v 1 - 5 f ) ]  .4 - * $ r 5 7 ; 7 @ * l } }  .* & 1 U ) ' Q 5 5 q +.@.} o... .{ )  .",
"_ .._ U I Q _ } } i = : _ _ ] E q 1 * _ ] ] f O 2 q M ] ]  .8 1 * h 1 7 5 1 5 * * l +.O.O.> 7 1 E } } R > * * O.@... .{ }  ._ _ ",
"_ @.{ ^ U Q _ _ } 9 5 q ) _ ) I + y > E }  .m u 5 $ u ^ ` +.6 y 1 & 1 8 > y 1 : < C ..+. .* 1 % R O.$._ % 7 q O. . ._ [ } ] } [ ",
"..@.o.} _ ^  .} } i 5 , )  .O._ 5 + 2 I _ } I 1 8 4 y ] } O.| V k l k j V w + % : U +.+.} < % 2 ~ O.+._ e 8 < .. .] / _ _ [ ] ..",
"{ O...} Q ] } } ] h 5 , R  ...O.7 # > A `  .] $ 1 7 1 U ] } } +.O.O.@.+.E % < * + ] +.@.W < 1 @ [ O.+.H 1 % 7  ...[ [ _ '  .) ..",
"^ @...} _ ] } ) / h 9 2 A  . . .y 1 5 c [  .O.s % 1 , - Q ) ) ) ] } ..{ - % % 1 h O.+.+.m > : 2 ..O.+.A % 1 g ....O. ._ Q  .[ ] ",
"{ &.@.O.] _ _ ] _ A > 9 m } } O.I 8 7 2 Q } ..^ = 8 2 1 q C _ ` ] ) A q 2 * % 7 E ..o.} @ 1 > h  .O.O.i : 1 c _ } } ..} ]  .{  .",
"  %.@.O.] } ] } ) E : 0 y } {  .) 5 8 8 m ] ] ..C ; * 1 u @ 6 h u 1 * 1 1 - @ u ` ` } S 1 2 s A } ..} 0 2 1 I ] `  . .O... .}   ",
"  @.@.@.+.O... ._  ., > * U } } ..y 8 7 1 Q ) _  .f 1 q 8 q 6 * * 4 % 7 % : s o..._ W 8 2 3 y ] } } M % 2 < ] _ }  ... ... . .  ",
"  O.%.O.` } ..O. .` h q w h ] } ..A % * y p _ ] } ..M q 2 7 > y 1 $ 2 % 1 M +.O. ._ i 1 6 * S } ` [ g q w q ) / { ..+.+.O. .O.  ",
"  { *.O... ...O...) ^ 8 : 0 Q } [ +.g 1 q - c Y Y / ` [ K e > 8 6 % 6 I } +.O...` h : o 2 q _ } [ U 9 % : G ( ] } +.@.+.O...}   ",
"  _ &.*.@.} ` O..._ ..q w 9 h _ _ ] } q 2 2 @ y G I E } $.-. .$.| ] &.+.+...} ` m * > > < E ) _ ] e 2 : 5  .} O...@.+.+.+...{   ",
"    +.&.@.O.] { .. .^ Q w > 5 U ]  ...~ q y 1 7 i S Y ) }  .+.@.+.} ` } [ ` E r 2 2 5 q R } } [ I 2 0 2 H { O...O.+.@.@.O...    ",
"    ] ;.@.@.} ] }  .Q ] p e 9 1 ) `  .+.[ p 5 1 % : t Y Q / }  . ./ Y Y H y q y < * : Q ..} } Q 7 9 2 8 } ` } ..O.+.+... .]     ",
"      *.@.O.{ _ Q ) _ W ) 0 2 q m _  .O.$.] q 2 + 1 @ @ 1 8 U ) _ E i 8 < : < 2 2 t E .._ / / e < 2 : Q ( {  .....+.+.} ]       ",
"      } *.O.{ _ Q Q W I E I e 0 i m ` } O.@.O.c 9 2 < 1 7 5 N Q Q G @ 2 q > < 7 c  ...} _ / h < 2 2 M / Q ] ` }  .O... ./       ",
"      Q ;.&.O.} ) Y Y E G [ M h q 9 B ` } O.O.$._ y q 3 1 t R { ` U < 8 2 7 q E ..` [ _ / u 2 1 : h _ W ] { }  ....... .U       ",
"        ..,.&.+.} _ Q U U S _ h 9 q 2 y Q {  .O.O.+.| U Z 7 Y ` } Q i A I ] [ ] ` / ) / i u 3 q g ] / ] } ..} } ....O._         ",
"          *.*.+....._ ) Y Q G  .8 q 9 2 8 Y ` [ }  ...O.O... .{ _ ] ..} } { ) _ / ( M 7 i 7 f g ..( } ........ .+.O.O.          ",
"          _ <.*. ._ ^ E Q Q ^ U } M g 8 h 9 q U ` ` ] ] { { } { ` ` ] _ _ / ) ) B 6 2 8 7 : f ` _  .....O.O...} O.+.E           ",
"            ..,.@.} } ] ] _ ` { Y } I , 8 : : i 1 B Q Y W ( ( _ _ _ ) ) / Y h < 7 1 * 6 1 N } /  .O.+.O.+.+.+.%.@.`             ",
"              &.<.;.%..._ ` } } { G H ] h y > 2 1 q + q i p B A F v s g 8 : 5 g % : 8 e ) _ / }  .O.+.+.+.@.%.%.O.              ",
"                ;.,.;.@... .{ { ] Q Y B Q ) h 1 * s i y 5 2 e e 7 8 * * q 0 2 2 2 e ~ _ Y _ }  .+.O.O.+.+.O.@.+.                ",
"                Q :.>.&. .{ { ` { _ ) _ U U ] ^ E 7 q q - 1 5 < > 5 8 : : 2 > s E ] W ( } ..O.O.O.O.O. . .O.+.Y                 ",
"                  Q ;.>.o. .@.o.+.O. .} ` _ W H Y ] [ E S c y r u f c N U _ } / Y / } O...O.O.+.+.O.O. ...O.Y                   ",
"                    ] ;.,.%.&.@.+.+... .} } { Q E G G Y Y / [  . .} ( Y Y Y Y I E _  .O.+.+.O.O.+.@.@.+.} I                     ",
"                        ;.<.:.*.%.@.O..... .} D n Q Q R _ Q Q Q I Y D Q _ ^ n n V ^ ..+.@...} O.%.%.:.+.                        ",
"                           .<.>.;.*.+.O.O.O.O.n G { A n n d d n l a n u n U n o...! ..+.o.+.%.@.*.;. .                          ",
"                            _ >.<.;.+... .}  .a ^ @.n D a J } } Z m } ^ a V d @.@.d Q @.+.@.&.>.*._                             ",
"                                ..<.:. .O.O.} a Q Q a Q W n a L A Z O...a ^ d n Z a ) %.@.@.*.{                                 ",
"                                     .:.;.&...I d n D { Z ^ n n T l P n m @.o.Q R O.;.,.;.}                                     ",
"                                        U o.<.*.@.} @.@.Q B P  .^ D Q ` &.;.:.>.<.:.%.)                                         ",
"                                            U H ] &.&.;.;.:.>.;.>.>.,.<.<.<.>.@. ./                                             ",
"                                                      W W ^ ` ` {  ...} }                                                       "
};
