/* XPM */
static char *_6_x_161674041908[] = {
/* columns rows colors chars-per-pixel */
"16 16 191 2 ",
"   c None",
".  c #7F5923",
"X  c #875F25",
"o  c #856026",
"O  c #896228",
"+  c #8A652B",
"@  c #8B652B",
"#  c #8A662C",
"$  c #8B662C",
"%  c #936C2D",
"&  c #916C2F",
"*  c #926D2F",
"=  c #8F6A30",
"-  c #936E30",
";  c #916D32",
":  c #926E32",
">  c #936F33",
",  c #946F31",
"<  c #957133",
"1  c #977132",
"2  c #967134",
"3  c #977234",
"4  c #967334",
"5  c #977335",
"6  c #977336",
"7  c #987334",
"8  c #9A7536",
"9  c #9B7636",
"0  c #977438",
"q  c #9A7638",
"w  c #9A7639",
"e  c #9A773A",
"r  c #9A773C",
"t  c #9B783B",
"y  c #9C793B",
"u  c #9F7C3A",
"i  c #9E7B3D",
"p  c #9E7C3C",
"a  c #9F7C3C",
"s  c #9F7E3E",
"d  c #9F7E3F",
"f  c #A07C3C",
"g  c #A17E3E",
"h  c #A07E3F",
"j  c #A4813E",
"k  c #A38241",
"l  c #A58341",
"z  c #A48445",
"x  c #A78645",
"c  c #A98744",
"v  c #AA8946",
"b  c #A58448",
"n  c #A48549",
"m  c #A58649",
"M  c #A4864C",
"N  c #A7884E",
"B  c #A8894A",
"V  c #AC8D4B",
"C  c #AF8D4B",
"Z  c #A9894D",
"A  c #A8894E",
"S  c #A88C4C",
"D  c #AC8E4F",
"F  c #AB904F",
"G  c #AD914F",
"H  c #AE904E",
"J  c #AF924E",
"K  c #AF9254",
"L  c #AF9156",
"P  c #B39653",
"I  c #B09254",
"U  c #B19655",
"Y  c #B39755",
"T  c #B19557",
"R  c #B39855",
"E  c #B59956",
"W  c #B39558",
"Q  c #B29659",
"!  c #B59858",
"~  c #B79D5B",
"^  c #B89B58",
"/  c #B99C58",
"(  c #BB9F58",
")  c #B89D5A",
"_  c #B99E5A",
"`  c #BA9E5B",
"'  c #B89E5C",
"]  c #B99E5C",
"[  c #B99F5D",
"{  c #B89E5E",
"}  c #BCA15A",
"|  c #BCA25B",
" . c #BBA05C",
".. c #BBA05D",
"X. c #BBA15D",
"o. c #BAA05E",
"O. c #BBA05F",
"+. c #BBA15F",
"@. c #BBA25F",
"#. c #BCA05C",
"$. c #BCA25C",
"%. c #BDA25D",
"&. c #BDA25E",
"*. c #BCA35F",
"=. c #BEA25E",
"-. c #B8A060",
";. c #BAA060",
":. c #BBA261",
">. c #BCA262",
",. c #BDA461",
"<. c #BFA561",
"1. c #BFA562",
"2. c #BFA662",
"3. c #BEA564",
"4. c #BEA664",
"5. c #BFA764",
"6. c #BFA866",
"7. c #C0A560",
"8. c #C0A660",
"9. c #C1A660",
"0. c #C1A661",
"q. c #C0A662",
"w. c #C0A663",
"e. c #C0A765",
"r. c #C2A863",
"t. c #C2A963",
"y. c #C3AA63",
"u. c #C0A865",
"i. c #C2A965",
"p. c #C3A965",
"a. c #C2AA64",
"s. c #C3AA65",
"d. c #C3AB65",
"f. c #C1A966",
"g. c #C2A866",
"h. c #C2A966",
"j. c #C3A967",
"k. c #C3AA67",
"l. c #C4AB64",
"z. c #C4AA67",
"x. c #C4AC66",
"c. c #C4AC67",
"v. c #C2AB6B",
"b. c #C4AA6A",
"n. c #C4AC68",
"m. c #C4AC69",
"M. c #C6AE69",
"N. c #C7AF69",
"B. c #C5AC6A",
"V. c #C5AD6A",
"C. c #C4AC6C",
"Z. c #C4AD6D",
"A. c #C6AE6C",
"S. c #C8AF69",
"D. c #C7B06D",
"F. c #C8B06B",
"G. c #C9B16B",
"H. c #C9B26C",
"J. c #CAB36D",
"K. c #CAB36E",
"L. c #CAB36F",
"P. c #CBB56F",
"I. c #C8B070",
"U. c #C9B271",
"Y. c #CCB571",
"T. c #CCB671",
"R. c #CDB671",
"E. c #CEB771",
"W. c #CCB672",
"Q. c #CCB673",
"!. c #CDB773",
"~. c #CEB773",
"^. c #CCB674",
"/. c #CEB872",
"(. c #CEB874",
"). c #CEB975",
"_. c #CFB978",
"`. c #D0BB77",
"'. c #D1BC78",
"]. c #D1BC79",
"[. c #D2BD7A",
"{. c #D2BD7B",
"}. c #D0BC7D",
"|. c #D3BE7C",
" X c #D2BE7D",
".X c #D4C07F",
"XX c #D5C180",
"oX c #D6C281",
"OX c #D6C283",
"+X c #D7C485",
"@X c #D8C689",
/* pixels */
"          7.*.` j.j.1.          ",
"      7.` ~ >.j.D.X.1.` j.      ",
"    m.U ;.U.M 4 < Z L.b.X.A.    ",
"  S.[ W.n r n.'.oXj.b K Z.E m.  ",
"  t.3.B Q ` % D K . P ! C j.j.  ",
"W.*.[ e 1.4 b.R z Z o { i 6.X.j.",
"J.x.B *.0 n.@ i Q Q K o >.M *.m.",
"9.x.: x.4 E @ 1.y i ` 5 t.t J.F.",
"J.l.< L.< *.& ` M O [ ; W.: S.S.",
"[.G.v ^ y ~ < & @ @ *.8 ^ f W.U.",
".XW.7.8 7.1 J :.7.[ : X.1 *.'.W.",
"  [.*.l c m.t i l f  .u f G.(.  ",
"  +XW.t.c 8 G t.l.C 4 f `.`.W.  ",
"    oX(.F.X.j < e l 7.W.`.P.    ",
"      @XoXj.~ F G B 3.|.|.      ",
"          D.v.:.j.}.'.          "
};
