/* XPM */
static char * bitcoin16_xpm[] = {
"16 16 176 2",
"  	c None",
". 	c #E3CD7E",
"+ 	c #E3C778",
"@ 	c #E0C373",
"# 	c #DEC173",
"$ 	c #E0C576",
"% 	c #E3CB79",
"& 	c #E8D181",
"* 	c #D7B668",
"= 	c #C6A55C",
"- 	c #C09D57",
"; 	c #BFA15C",
"> 	c #BE9E59",
", 	c #B89554",
"' 	c #CBAB61",
") 	c #D2B569",
"! 	c #DEC979",
"~ 	c #EBD282",
"{ 	c #D0AF61",
"] 	c #B39151",
"^ 	c #BA9955",
"/ 	c #B49655",
"( 	c #B79855",
"_ 	c #C1A25A",
": 	c #CBAC63",
"< 	c #D0AD60",
"[ 	c #C2A25F",
"} 	c #DEC777",
"| 	c #EFD886",
"1 	c #D2B263",
"2 	c #B59453",
"3 	c #BC9B57",
"4 	c #C4AA61",
"5 	c #DCBA68",
"6 	c #B49453",
"7 	c #BE9E57",
"8 	c #C5A35B",
"9 	c #CEAB5E",
"0 	c #B49755",
"a 	c #B29151",
"b 	c #C6A864",
"c 	c #E1CB78",
"d 	c #E2C470",
"e 	c #B69755",
"f 	c #D0B264",
"g 	c #B69654",
"h 	c #C2A55B",
"i 	c #B19050",
"j 	c #B49352",
"k 	c #C4A45D",
"l 	c #CDA95E",
"m 	c #CAAF63",
"n 	c #C09F59",
"o 	c #CFB56C",
"p 	c #EAD17E",
"q 	c #D1B366",
"r 	c #BB9B55",
"s 	c #B69754",
"t 	c #BB9A56",
"u 	c #BD9D5A",
"v 	c #C2A15B",
"w 	c #B79654",
"x 	c #B29152",
"y 	c #BDA05D",
"z 	c #D7C375",
"A 	c #E5CD7A",
"B 	c #B59655",
"C 	c #C0A159",
"D 	c #B99855",
"E 	c #BE9C58",
"F 	c #CCA85F",
"G 	c #C8A764",
"H 	c #CEB166",
"I 	c #CDAC62",
"J 	c #CDB168",
"K 	c #D9BC6E",
"L 	c #C7AA63",
"M 	c #D3BA70",
"N 	c #C8A962",
"O 	c #B39253",
"P 	c #E0C877",
"Q 	c #E0C776",
"R 	c #BEA059",
"S 	c #B69452",
"T 	c #D6B869",
"U 	c #C4A862",
"V 	c #D0B366",
"W 	c #D2B364",
"X 	c #CDAE63",
"Y 	c #D3AF64",
"Z 	c #C9A75E",
"` 	c #D7B167",
" .	c #D9BD6F",
"..	c #DCC274",
"+.	c #DFC474",
"@.	c #B49251",
"#.	c #C5A95E",
"$.	c #B49351",
"%.	c #B99955",
"&.	c #C5A75D",
"*.	c #B29150",
"=.	c #B39251",
"-.	c #B99854",
";.	c #B49150",
">.	c #CBAE62",
",.	c #B69453",
"'.	c #D6BA6F",
").	c #E4CC77",
"!.	c #BB9956",
"~.	c #B69653",
"{.	c #CDAF61",
"].	c #B79653",
"^.	c #B49452",
"/.	c #B29050",
"(.	c #BFA058",
"_.	c #B49553",
":.	c #B59552",
"<.	c #BA9D58",
"[.	c #AE8E4F",
"}.	c #BA9C56",
"|.	c #B59252",
"1.	c #E3C978",
"2.	c #E0C773",
"3.	c #C9AB62",
"4.	c #B69552",
"5.	c #BB9A55",
"6.	c #C5A25A",
"7.	c #C5A259",
"8.	c #C09E57",
"9.	c #B89653",
"0.	c #B29251",
"a.	c #DCC16C",
"b.	c #CFAB5F",
"c.	c #BEA05E",
"d.	c #DEC075",
"e.	c #D9BD6E",
"f.	c #B99754",
"g.	c #C2A059",
"h.	c #CAA75C",
"i.	c #C2A058",
"j.	c #CDA85C",
"k.	c #B59352",
"l.	c #C2A65D",
"m.	c #C5A55B",
"n.	c #BA9A56",
"o.	c #B49654",
"p.	c #D3B96F",
"q.	c #E2C774",
"r.	c #CDAF64",
"s.	c #C3A059",
"t.	c #C4A059",
"u.	c #B99753",
"v.	c #BE9E58",
"w.	c #C7A962",
"x.	c #DDBC71",
"y.	c #E2C473",
"z.	c #D1B568",
"A.	c #B29352",
"B.	c #C0A35B",
"C.	c #BC9B56",
"D.	c #CCB268",
"E.	c #D8B96D",
"F.	c #DDBD70",
"G.	c #D6BD70",
"H.	c #C7AC62",
"I.	c #CAAA5F",
"J.	c #B69352",
"K.	c #B59353",
"L.	c #C19E57",
"M.	c #C7A961",
"N.	c #DCC172",
"O.	c #DCBD71",
"P.	c #DDC173",
"Q.	c #D8BC70",
"R.	c #DAC072",
"S.	c #D8BA6E",
"          . + @ # $ %           ",
"      & * = - ; > , ' ) !       ",
"    ~ { ] ^ / ( _ : < ( [ }     ",
"  | 1 2 3 4 5 6 7 8 9 0 a b c   ",
"  d e f 6 g h i j k l m n ( o   ",
"p q 2 r s 2 a t ] u v 2 w x y z ",
"A B C D E F G H I J K L M N O P ",
"Q D R S j T U V W X Y Z `  .i ..",
"+.@.@.#.$.%.&.*.*.*.=.-.;.>.,.'.",
").!.~.{.].-.^./.(._.:.<.[.}.|.1.",
"2.3.4.5.6.7.8.9.0.5.4.a.b.C c.d.",
"  e.f.g.h.i.j.k.l.m.n.o.i *.p.  ",
"  q.r.2 s.t.u.v.*.@.4.S ] w.x.  ",
"    y.z.^ A.B.^.s ].j C.D.E.    ",
"      F.G.H.I.J.K.L.M.N.O.      ",
"          E.P.Q.'.R.S.          "};
