/* XPM */
static char *_2_x_321674041909[] = {
/* columns rows colors chars-per-pixel */
"32 32 66 1 ",
"  c None",
". c #784F19",
"X c #76501D",
"o c #7C541C",
"O c #7F5720",
"+ c #7E5922",
"@ c #81571E",
"# c #82591E",
"$ c #845C22",
"% c #876025",
"& c #8A6225",
"* c #8C652A",
"= c #8E692D",
"- c #906727",
"; c #926B2C",
": c #936E32",
"> c #967235",
", c #997435",
"< c #957339",
"1 c #997539",
"2 c #9D7A3B",
"3 c #A17E3D",
"4 c #9C7C41",
"5 c #A38243",
"6 c #A88746",
"7 c #A98846",
"8 c #A58549",
"9 c #A88749",
"0 c #A68A4A",
"q c #AA8C4C",
"w c #B08F4A",
"e c #AE914D",
"r c #B1924E",
"t c #AD8E52",
"y c #AE9353",
"u c #B29553",
"i c #B59955",
"p c #BA9E56",
"a c #B49759",
"s c #B69B5A",
"d c #B99E5A",
"f c #BDA25C",
"g c #BA9F61",
"h c #BDA362",
"j c #C1A75F",
"k c #C0A762",
"l c #C3AB65",
"z c #C6AE69",
"x c #C8AF6B",
"c c #C7B06D",
"v c #C9B26C",
"b c #C6AE70",
"n c #C7B171",
"m c #CCB572",
"M c #CEB975",
"N c #CCB579",
"B c #CFB979",
"V c #D0BA77",
"C c #D2BD7B",
"Z c #D4C07F",
"A c #D1BC80",
"S c #D6C383",
"D c #D9C686",
"F c #D9C689",
"G c #DBC98B",
"H c #DFCF93",
/* pixels */
"            lkhlllxN            ",
"         ckffpfyhvffphn         ",
"        fplekszyMhqcpzuiA       ",
"      ffzyltuxcnClslumlffl      ",
"     piqsgbSSMgusgNAmznhsfh     ",
"    lklyuSN9$&$$&o@#9SGuhvfl    ",
"   vlvMzDu$@9bFSGGmq;$tHMf8fl   ",
"   lqsMM2O2mSVlnNlnCC8$:FyuhhM  ",
"  vvsyZ,%smlr;;dhoO<fVd*2Slzss  ",
" MvycBu$svf;;*0zzt<o%yva;emymlm ",
" mpaeh#6Cf=*sZZmzvMyO=fS7&lzmlz ",
" MMpv2%mB1;evh2>;*>>%$:mV$4Cqqp ",
"Mmllm;,Cy>yB0o%o$%>&$$$qC4+Sfyfz",
"lvzvl*sM%%cfoo5hmmbmNn$=npXhnlvv",
"ljkvi&zf%<m5o1Mluatysz2$iz=eMllh",
"kffv0&lf%1l>*rv=O=$+=my$sv%0Mmvl",
"mzjvr#zj$2m2$6Mt::*o:VqodC$8xlzz",
"Vvlzp-lV$;ce%=lvmN:o5C2ozz$wMlll",
"VVzzp&uv2=fc=#;q8:O+lv$=Ni-izMvM",
"VCMVv-:vs$,ll;>$.O$gz3$uz:$lvMMm",
" ZVMvq;pv5&>ilhq5yMv7.:lj#3xVCV ",
" SCzmf->zv,&;rzMvkf2$;lz3#jVVVV ",
" VCzjpr;7vV5.o&up%#$,zl3@3jvVMl ",
"  GVjpir-5vVz5%il&3szl3;,pvxMV  ",
"  MDvfpp5-2ixvMvvvzlu,;5zmVmVl  ",
"   DDmlvfe-&;3rfjr7;o&6jMVCCv   ",
"    GDmzlfi5>;#&*#&$3plMVVVV    ",
"     FSCBmvffpu7q7ilkmVVCVv     ",
"      SHSMMffyeewqi0sVVVDC      ",
"       VHCMuh05sev50yzCDm       ",
"         ZZMyhsqqyzNNDC         ",
"            MZBBSSGS            "
};
